<mxfile host="Electron" modified="2024-07-08T19:49:47.970Z" agent="Mozilla/5.0 (X11; Linux x86_64) AppleWebKit/537.36 (KHTML, like Gecko) draw.io/24.6.4 Chrome/124.0.6367.207 Electron/30.0.6 Safari/537.36" etag="cveiMJVIQ384mz_OTDWM" version="24.6.4" type="device">
  <diagram name="Page-1" id="ZPetlluUW89bsomruErj">
    <mxGraphModel dx="1114" dy="1113" grid="1" gridSize="10" guides="1" tooltips="1" connect="1" arrows="1" fold="1" page="1" pageScale="1" pageWidth="827" pageHeight="1169" math="0" shadow="0">
      <root>
        <mxCell id="0" />
        <mxCell id="1" parent="0" />
        <mxCell id="dirFS9xVtUrTlhrU28fw-1" value="DonnÃ©es brutes" style="rounded=0;whiteSpace=wrap;html=1;" vertex="1" parent="1">
          <mxGeometry x="300" y="90" width="120" height="60" as="geometry" />
        </mxCell>
        <mxCell id="dirFS9xVtUrTlhrU28fw-2" value="Fenetres" style="rounded=0;whiteSpace=wrap;html=1;" vertex="1" parent="1">
          <mxGeometry x="235" y="170" width="120" height="60" as="geometry" />
        </mxCell>
        <mxCell id="dirFS9xVtUrTlhrU28fw-3" value="Format&lt;div&gt;annotations&lt;/div&gt;" style="rounded=0;whiteSpace=wrap;html=1;" vertex="1" parent="1">
          <mxGeometry x="365" y="170" width="120" height="60" as="geometry" />
        </mxCell>
        <mxCell id="dirFS9xVtUrTlhrU28fw-4" value="Normalisation" style="rounded=0;whiteSpace=wrap;html=1;" vertex="1" parent="1">
          <mxGeometry x="235" y="250" width="120" height="60" as="geometry" />
        </mxCell>
        <mxCell id="dirFS9xVtUrTlhrU28fw-5" value="Rechantillonage" style="rounded=0;whiteSpace=wrap;html=1;" vertex="1" parent="1">
          <mxGeometry x="365" y="250" width="120" height="60" as="geometry" />
        </mxCell>
        <mxCell id="dirFS9xVtUrTlhrU28fw-6" value="Split T-V-T" style="rounded=0;whiteSpace=wrap;html=1;" vertex="1" parent="1">
          <mxGeometry x="300" y="420" width="120" height="60" as="geometry" />
        </mxCell>
        <mxCell id="dirFS9xVtUrTlhrU28fw-7" value="Format fichier" style="rounded=0;whiteSpace=wrap;html=1;" vertex="1" parent="1">
          <mxGeometry x="300" y="340" width="120" height="60" as="geometry" />
        </mxCell>
      </root>
    </mxGraphModel>
  </diagram>
</mxfile>
